screens;
 
http://baypic.net/img-51a2ff62b924f.html 
 
http://baypic.net/img-51a2ff6721719.html 
 
http://baypic.net/img-51a2ff6a53980.html 

Format : MPEG-4
Format profile : Base Media
Codec ID : isom
File size : 862 MiB
Duration : 14mn 5s
Overall bit rate mode : Variable
Overall bit rate : 8 544 Kbps
Writing application : Lavf54.22.100

Video
ID : 1
Format : MPEG-4 Visual
Format profile : Simple@L1
Format settings, BVOP : No
Format settings, QPel : No
Format settings, GMC : No warppoints
Format settings, Matrix : Default (H.263)
Codec ID : 20
Duration : 14mn 5s
Bit rate mode : Variable
Bit rate : 8 500 Kbps
Width : 1 920 pixels
Height : 1 080 pixels
Display aspect ratio : 16:9
Frame rate mode : Constant
Frame rate : 25.000 fps
Color space : YUV
Chroma subsampling : 4:2:0
Bit depth : 8 bits
Scan type : Progressive
Compression mode : Lossy
Bits/(Pixel*Frame) : 0.164
Stream size : 851 MiB (99%)
Writing library : Lavc54.46.100
Language : English

Audio
ID : 2
Format : AAC
Format/Info : Advanced Audio Codec
Format profile : LC
Codec ID : 40
Duration : 14mn 5s
Duration_LastFrame : -1ms
Bit rate mode : Variable
Bit rate : 101 Kbps
Maximum bit rate : 128 Kbps
Channel(s) : 2 channels
Channel positions : Front: L R
Sampling rate : 48.0 KHz
Compression mode : Lossy
Stream size : 10.2 MiB (1%)
Language : English
